<svg width="130" height="130" viewBox="0 0 130 130" fill="none" xmlns="http://www.w3.org/2000/svg">
<g clip-path="url(#clip0_70_427)">
<path d="M43.3333 130C55.2933 130 65 120.293 65 108.333V86.6666H43.3333C31.3733 86.6666 21.6666 96.3733 21.6666 108.333C21.6666 120.293 31.3733 130 43.3333 130Z" fill="#0ACF83"/>
<path d="M21.6666 65C21.6666 53.04 31.3733 43.3334 43.3333 43.3334H65V86.6667H43.3333C31.3733 86.6667 21.6666 76.96 21.6666 65Z" fill="#A259FF"/>
<path d="M21.6666 21.6667C21.6666 9.70667 31.3733 0 43.3333 0H65V43.3333H43.3333C31.3733 43.3333 21.6666 33.6267 21.6666 21.6667Z" fill="#F24E1E"/>
<path d="M65 0H86.6667C98.6267 0 108.333 9.70667 108.333 21.6667C108.333 33.6267 98.6267 43.3333 86.6667 43.3333H65V0Z" fill="#FF7262"/>
<path d="M108.333 65C108.333 76.96 98.6267 86.6667 86.6667 86.6667C74.7067 86.6667 65 76.96 65 65C65 53.04 74.7067 43.3334 86.6667 43.3334C98.6267 43.3334 108.333 53.04 108.333 65Z" fill="#1ABCFE"/>
</g>
<defs>
<clipPath id="clip0_70_427">
<rect width="86.684" height="130" fill="white" transform="translate(21.658)"/>
</clipPath>
</defs>
</svg>
