<svg width="131" height="131" viewBox="0 0 131 131" fill="none" xmlns="http://www.w3.org/2000/svg">
<g clip-path="url(#clip0_70_428)">
<path d="M31.3146 102.268H26.2988C26.1222 93.7787 25.6332 85.7963 24.834 78.3189H24.7898L17.153 102.268H13.3333L5.74233 78.3189H5.69744C5.1344 85.5002 4.77969 93.4826 4.63231 102.268H0.0585938C0.354018 91.5835 1.09358 81.5675 2.27762 72.2181H8.49459L15.7315 94.2979H15.7757L23.0571 72.2181H29.0058C30.3084 83.1679 31.0775 93.1869 31.3136 102.268M53.0735 80.0978C51.0306 91.2104 48.3363 99.286 44.9922 104.324C42.3863 108.206 39.5319 110.146 36.4236 110.146C35.5949 110.146 34.573 109.896 33.3605 109.399V106.72C33.953 106.807 34.648 106.853 35.4472 106.853C36.8975 106.853 38.0661 106.452 38.9551 105.65C40.0202 104.672 40.5528 103.574 40.5528 102.356C40.5528 101.525 40.1375 99.8189 39.3098 97.2381L33.8046 80.0978H38.7324L42.6834 92.9169C43.571 95.8276 43.9415 97.8594 43.7931 99.0177C45.9542 93.2304 47.4638 86.9234 48.3226 80.0978H53.0732" fill="#00758F"/>
<path d="M75.0464 93.9388C75.0464 96.4871 74.1126 98.5792 72.251 100.216C70.388 101.846 67.8849 102.663 64.7508 102.663C61.8193 102.663 58.9783 101.723 56.2264 99.857L57.5136 97.2759C59.8817 98.4629 62.0253 99.0555 63.9493 99.0555C65.7543 99.0555 67.1671 98.6529 68.189 97.857C69.209 97.0555 69.8202 95.9378 69.8202 94.5199C69.8202 92.7357 68.5789 91.2107 66.302 89.9311C64.1998 88.7742 59.9989 86.3596 59.9989 86.3596C57.7226 84.6949 56.5814 82.9083 56.5814 79.9651C56.5814 77.5307 57.4322 75.5632 59.1324 74.0663C60.8359 72.5661 63.0339 71.8162 65.7255 71.8162C68.5079 71.8162 71.0378 72.5607 73.3164 74.0442L72.1588 76.6233C70.2095 75.7943 68.2868 75.3783 66.391 75.3783C64.853 75.3783 63.6679 75.7484 62.8413 76.4937C62.0106 77.2319 61.4968 78.1822 61.4968 79.3404C61.4968 81.12 62.7649 82.6638 65.1059 83.9681C67.2344 85.1253 71.5385 87.5869 71.5385 87.5869C73.8798 89.2485 75.0464 91.0204 75.0464 93.9388Z" fill="#F29111"/>
<path fill-rule="evenodd" clip-rule="evenodd" d="M84.0136 96.2567C82.7995 94.2979 82.1915 91.1544 82.1915 86.8202C82.1915 79.2537 84.4859 75.4678 89.0734 75.4678C91.4716 75.4678 93.2321 76.3735 94.3578 78.1826C95.5704 80.142 96.1783 83.2584 96.1783 87.532C96.1783 95.1591 93.8836 98.9745 89.2964 98.9745C86.8986 98.9745 85.1377 98.0694 84.0136 96.2567ZM101.861 102.993L96.3525 100.269C96.8428 99.8658 97.3087 99.4307 97.7304 98.9269C100.069 96.1703 101.24 92.0896 101.24 86.6872C101.24 76.746 97.3476 71.7723 89.5634 71.7723C85.745 71.7723 82.7693 73.0331 80.6387 75.5579C78.2991 78.3179 77.1308 82.3835 77.1308 87.755C77.1308 93.0372 78.1658 96.9122 80.2378 99.3737C82.1255 101.598 84.9806 102.712 88.8024 102.712C90.2286 102.712 91.5369 102.536 92.726 102.184L99.8999 106.37L101.856 102.993" fill="#F29111"/>
<path d="M119.843 102.268H105.593V72.2181H110.388V98.5715H119.843V102.268ZM123.263 102.265H124.058V99.2076H125.097V98.5832H122.183V99.2076H123.263V102.265ZM129.309 102.265H130.058V98.5832H128.932L128.015 101.093L127.017 98.5832H125.932V102.265H126.64V99.4628H126.68L127.726 102.265H128.266L129.309 99.4628V102.265Z" fill="#F29111"/>
<path fill-rule="evenodd" clip-rule="evenodd" d="M125.863 62.153C122.964 62.0803 120.72 62.37 118.837 63.1696C118.294 63.3873 117.426 63.3873 117.352 64.0773C117.643 64.367 117.679 64.8386 117.934 65.2395C118.367 65.966 119.126 66.9444 119.816 67.4542C120.576 68.0357 121.337 68.6145 122.134 69.1223C123.546 69.9978 125.139 70.5039 126.514 71.3755C127.313 71.8832 128.107 72.536 128.906 73.0823C129.303 73.3724 129.554 73.8454 130.063 74.0249V73.915C129.808 73.5891 129.737 73.1172 129.484 72.7521C129.123 72.3917 128.76 72.0628 128.397 71.7014C127.347 70.2855 126.041 69.0523 124.632 68.0357C123.473 67.2348 120.937 66.1452 120.468 64.8058L120.394 64.7318C121.191 64.6581 122.134 64.367 122.894 64.1469C124.123 63.821 125.246 63.8947 126.514 63.5688C127.094 63.4224 127.673 63.2399 128.255 63.0614V62.7321C127.6 62.0803 127.131 61.2074 126.443 60.5908C124.598 58.9938 122.567 57.4336 120.468 56.1246C119.344 55.3984 117.895 54.9288 116.7 54.3099C116.267 54.0915 115.544 53.984 115.289 53.6189C114.637 52.8203 114.274 51.7689 113.804 50.8234C112.755 48.8288 111.739 46.6148 110.835 44.5056C110.184 43.0904 109.785 41.6753 108.988 40.3676C105.257 34.1939 101.203 30.4565 94.9741 26.7889C93.6343 26.0252 92.0413 25.6986 90.3408 25.2993C89.4341 25.2612 88.5294 25.1905 87.6244 25.155C87.0439 24.8998 86.4638 24.2094 85.9577 23.8825C83.8927 22.5762 78.5721 19.7449 77.0501 23.4839C76.072 25.8453 78.4987 28.1678 79.3317 29.3666C79.947 30.2006 80.7445 31.1462 81.1773 32.0887C81.4308 32.706 81.5035 33.3609 81.7581 34.0133C82.3369 35.6107 82.8792 37.3903 83.6412 38.8795C84.0381 39.6421 84.4722 40.442 84.979 41.1286C85.2714 41.5306 85.7768 41.7094 85.8857 42.3653C85.3806 43.0904 85.341 44.1797 85.0516 45.0881C83.7487 49.1912 84.2548 54.2737 86.1024 57.2869C86.6805 58.1946 88.0585 60.1919 89.905 59.4275C91.5346 58.7754 91.1725 56.7057 91.6427 54.8913C91.7513 54.4525 91.6786 54.1645 91.895 53.8748V53.9481C92.4017 54.963 92.9102 55.9411 93.3805 56.961C94.5049 58.7382 96.4586 60.5905 98.0892 61.8237C98.956 62.4799 99.6443 63.6037 100.731 64.0043V63.8944H100.66C100.441 63.5685 100.116 63.4221 99.8262 63.1692C99.1747 62.5154 98.4522 61.7162 97.9431 60.9904C96.4228 58.9579 95.0813 56.7057 93.8889 54.3822C93.3078 53.2541 92.802 52.0208 92.3307 50.8961C92.114 50.4623 92.114 49.8068 91.7513 49.5898C91.2066 50.3873 90.4118 51.0783 90.0142 52.0557C89.3256 53.6185 89.2539 55.5425 88.9983 57.5404C88.8543 57.5783 88.9273 57.5404 88.8543 57.6124C87.6971 57.3224 87.2985 56.1243 86.863 55.1111C85.7768 52.5299 85.5943 48.391 86.5371 45.4133C86.7893 44.6523 87.8789 42.2561 87.4425 41.5299C87.2234 40.8372 86.5003 40.4413 86.1027 39.8947C85.6328 39.2047 85.123 38.3352 84.8004 37.5712C83.9306 35.5387 83.4935 33.2865 82.5549 31.254C82.1202 30.3085 81.3582 29.3281 80.7445 28.4582C80.0552 27.4778 79.2956 26.7882 78.7516 25.6276C78.5721 25.2273 78.3182 24.5732 78.6069 24.1391C78.6779 23.848 78.825 23.7385 79.1154 23.6658C79.5833 23.2662 80.9247 23.7737 81.3947 23.9914C82.7355 24.5347 83.8579 25.0458 84.979 25.8068C85.4867 26.1705 86.0297 26.8602 86.6805 27.0434H87.4425C88.6007 27.2956 89.905 27.1138 90.9923 27.442C92.9102 28.059 94.6479 28.9664 96.2061 29.9471C100.948 32.9609 104.859 37.2463 107.501 42.3646C107.937 43.1986 108.12 43.962 108.517 44.8315C109.277 46.6141 110.22 48.4295 110.979 50.1706C111.739 51.8771 112.464 53.6185 113.552 55.0367C114.094 55.7977 116.267 56.1973 117.245 56.5969C117.968 56.9224 119.092 57.2135 119.744 57.6124C120.975 58.3734 122.204 59.2463 123.364 60.0827C123.942 60.5181 125.754 61.4252 125.863 62.1523" fill="#00758F"/>
<path fill-rule="evenodd" clip-rule="evenodd" d="M88.9263 30.5972C88.4257 30.5936 87.9267 30.6549 87.4418 30.7797V30.8524H87.5122C87.8046 31.4319 88.312 31.8345 88.6711 32.3419C88.9625 32.9231 89.2167 33.5019 89.5058 34.0837C89.5416 34.0478 89.5761 34.01 89.5761 34.01C90.0869 33.6482 90.3398 33.0681 90.3398 32.1952C90.1211 31.9393 90.0869 31.6871 89.9044 31.4319C89.6877 31.0698 89.2167 30.8883 88.9263 30.5972Z" fill="#00758F"/>
</g>
<defs>
<clipPath id="clip0_70_428">
<rect width="130" height="88.5234" fill="white" transform="translate(0.0599365 21.6216)"/>
</clipPath>
</defs>
</svg>
