<svg width="100" height="100" viewBox="0 0 100 100" fill="none" xmlns="http://www.w3.org/2000/svg">
<path d="M50 8.33331C73.0125 8.33331 91.6667 26.9875 91.6667 50C91.6667 73.0125 73.0125 91.6667 50 91.6667C26.9875 91.6667 8.33331 73.0125 8.33331 50C8.33331 26.9875 26.9875 8.33331 50 8.33331ZM50 66.6667C48.8949 66.6667 47.8351 67.1056 47.0537 67.887C46.2723 68.6684 45.8333 69.7282 45.8333 70.8333C45.8333 71.9384 46.2723 72.9982 47.0537 73.7796C47.8351 74.561 48.8949 75 50 75C51.1051 75 52.1649 74.561 52.9463 73.7796C53.7277 72.9982 54.1666 71.9384 54.1666 70.8333C54.1666 69.7282 53.7277 68.6684 52.9463 67.887C52.1649 67.1056 51.1051 66.6667 50 66.6667ZM50 27.0833C45.9941 27.0833 42.1523 28.6746 39.3197 31.5072C36.4871 34.3398 34.8958 38.1816 34.8958 42.1875C34.8958 43.2926 35.3348 44.3524 36.1162 45.1338C36.8976 45.9152 37.9574 46.3541 39.0625 46.3541C40.1676 46.3541 41.2274 45.9152 42.0088 45.1338C42.7902 44.3524 43.2291 43.2926 43.2291 42.1875C43.2305 40.9585 43.5664 39.753 44.2007 38.7003C44.8351 37.6477 45.744 36.7876 46.83 36.2121C47.916 35.6367 49.1381 35.3678 50.3654 35.4341C51.5926 35.5004 52.7786 35.8995 53.7963 36.5886C54.8139 37.2777 55.6248 38.2308 56.1421 39.3457C56.6593 40.4606 56.8633 41.6952 56.7322 42.9172C56.6011 44.1392 56.1399 45.3025 55.398 46.2823C54.6561 47.2622 53.6615 48.0216 52.5208 48.4792C49.7041 49.6042 45.8333 52.4875 45.8333 57.2917V58.3333C45.8333 59.4384 46.2723 60.4982 47.0537 61.2796C47.8351 62.061 48.8949 62.5 50 62.5C51.1051 62.5 52.1649 62.061 52.9463 61.2796C53.7277 60.4982 54.1666 59.4384 54.1666 58.3333C54.1666 57.3167 54.375 56.8083 55.2541 56.375L55.6166 56.2083C58.87 54.8995 61.5668 52.4998 63.2447 49.4205C64.9226 46.3412 65.477 42.7741 64.813 39.3308C64.149 35.8874 62.3078 32.7823 59.6052 30.5478C56.9025 28.3132 53.5068 27.0884 50 27.0833Z" fill="current"/>
</svg>
