<svg width="131" height="131" viewBox="0 0 131 131" fill="none" xmlns="http://www.w3.org/2000/svg">
<g clip-path="url(#clip0_70_420)">
<path d="M65.5 77.881C72.3378 77.881 77.8809 72.3379 77.8809 65.5001C77.8809 58.6623 72.3378 53.1191 65.5 53.1191C58.6622 53.1191 53.119 58.6623 53.119 65.5001C53.119 72.3379 58.6622 77.881 65.5 77.881Z" fill="#58C4DC"/>
<path d="M65.5 93.3573C99.689 93.3573 127.405 80.8853 127.405 65.5002C127.405 50.1151 99.689 37.6431 65.5 37.6431C31.3109 37.6431 3.59521 50.1151 3.59521 65.5002C3.59521 80.8853 31.3109 93.3573 65.5 93.3573Z" stroke="#58C4DC" stroke-width="6.19048"/>
<path d="M41.375 79.4287C58.4695 109.037 83.1285 126.804 96.4524 119.111C109.776 111.419 106.72 81.1801 89.625 51.5715C72.5305 21.963 47.8715 4.19648 34.5476 11.889C21.2237 19.5816 24.2805 49.8201 41.375 79.4287Z" stroke="#58C4DC" stroke-width="6.19048"/>
<path d="M41.375 51.5716C24.2805 81.1802 21.2238 111.419 34.5476 119.111C47.8715 126.804 72.5305 109.037 89.625 79.4287C106.72 49.8201 109.776 19.5816 96.4524 11.8891C83.1285 4.19652 58.4696 21.963 41.375 51.5716Z" stroke="#58C4DC" stroke-width="6.19048"/>
</g>
<defs>
<clipPath id="clip0_70_420">
<rect width="130" height="130" fill="white" transform="translate(0.5 0.5)"/>
</clipPath>
</defs>
</svg>
