<svg width="100" height="100" viewBox="0 0 100 100" fill="none" xmlns="http://www.w3.org/2000/svg">
<path fill-rule="evenodd" clip-rule="evenodd" d="M59.2 20.125C61.0889 20.7083 62.8944 21.4583 64.6167 22.375L72.2541 17.7916C73.0505 17.314 73.9837 17.1161 74.9054 17.2293C75.8271 17.3425 76.6846 17.7604 77.3417 18.4166L81.5833 22.6583C82.2395 23.3154 82.6574 24.1729 82.7707 25.0946C82.8839 26.0163 82.686 26.9494 82.2083 27.7458L77.625 35.3833C78.5416 37.1055 79.2917 38.9111 79.875 40.8L88.5125 42.9625C89.4135 43.1882 90.2133 43.7085 90.7848 44.4408C91.3562 45.1731 91.6666 46.0753 91.6667 47.0041V52.9958C91.6666 53.9247 91.3562 54.8269 90.7848 55.5592C90.2133 56.2915 89.4135 56.8118 88.5125 57.0375L79.875 59.2C79.2917 61.0889 78.5416 62.8944 77.625 64.6167L82.2083 72.2541C82.686 73.0505 82.8839 73.9837 82.7707 74.9054C82.6574 75.8271 82.2395 76.6846 81.5833 77.3417L77.3417 81.5833C76.6846 82.2395 75.8271 82.6574 74.9054 82.7707C73.9837 82.8839 73.0505 82.686 72.2541 82.2083L64.6167 77.625C62.8944 78.5416 61.0889 79.2917 59.2 79.875L57.0375 88.5125C56.8118 89.4135 56.2915 90.2133 55.5592 90.7848C54.8269 91.3562 53.9247 91.6666 52.9958 91.6667H47.0041C46.0753 91.6666 45.1731 91.3562 44.4408 90.7848C43.7085 90.2133 43.1882 89.4135 42.9625 88.5125L40.8 79.875C38.9279 79.2965 37.1143 78.5431 35.3833 77.625L27.7458 82.2083C26.9494 82.686 26.0163 82.8839 25.0946 82.7707C24.1729 82.6574 23.3154 82.2395 22.6583 81.5833L18.4166 77.3417C17.7604 76.6846 17.3425 75.8271 17.2293 74.9054C17.1161 73.9837 17.314 73.0505 17.7916 72.2541L22.375 64.6167C21.4568 62.8856 20.7035 61.0721 20.125 59.2L11.4875 57.0375C10.5871 56.8119 9.78789 56.2922 9.21649 55.5608C8.64509 54.8294 8.33427 53.9281 8.33331 53V47.0083C8.33334 46.0794 8.64374 45.1772 9.21521 44.4449C9.78668 43.7127 10.5865 43.1924 11.4875 42.9667L20.125 40.8041C20.7083 38.9153 21.4583 37.1097 22.375 35.3875L17.7916 27.75C17.314 26.9536 17.1161 26.0205 17.2293 25.0988C17.3425 24.177 17.7604 23.3196 18.4166 22.6625L22.6583 18.4166C23.3154 17.7604 24.1729 17.3425 25.0946 17.2293C26.0163 17.1161 26.9494 17.314 27.7458 17.7916L35.3833 22.375C37.1055 21.4583 38.9111 20.7083 40.8 20.125L42.9625 11.4875C43.188 10.5871 43.7077 9.78789 44.4391 9.21649C45.1706 8.64509 46.0718 8.33427 47 8.33331H52.9917C53.9205 8.33334 54.8227 8.64374 55.555 9.21521C56.2873 9.78668 56.8076 10.5865 57.0333 11.4875L59.2 20.125ZM50 66.6667C54.4203 66.6667 58.6595 64.9107 61.7851 61.7851C64.9107 58.6595 66.6667 54.4203 66.6667 50C66.6667 45.5797 64.9107 41.3405 61.7851 38.2149C58.6595 35.0893 54.4203 33.3333 50 33.3333C45.5797 33.3333 41.3405 35.0893 38.2149 38.2149C35.0893 41.3405 33.3333 45.5797 33.3333 50C33.3333 54.4203 35.0893 58.6595 38.2149 61.7851C41.3405 64.9107 45.5797 66.6667 50 66.6667Z" fill="current"/>
</svg>
