<svg width="100" height="100" viewBox="0 0 100 100" fill="none" xmlns="http://www.w3.org/2000/svg">
<path d="M60.9167 11.0918C61.7076 11.313 62.4471 11.688 63.093 12.1952C63.7389 12.7025 64.2784 13.332 64.6809 14.0479C65.0833 14.7638 65.3407 15.5519 65.4384 16.3673C65.536 17.1828 65.4721 18.0094 65.2501 18.8001L46.7876 84.5793C46.34 86.1755 45.2767 87.5286 43.8315 88.3409C42.3863 89.1532 40.6776 89.3581 39.0813 88.9105C37.485 88.463 36.1319 87.3996 35.3197 85.9544C34.5074 84.5092 34.3025 82.8005 34.7501 81.2043L53.2126 15.4168C53.4343 14.6263 53.8096 13.8872 54.317 13.2418C54.8244 12.5964 55.454 12.0572 56.1698 11.6552C56.8857 11.2532 57.6737 10.9961 58.4889 10.8987C59.3041 10.8014 60.1305 10.8655 60.9209 11.0876L60.9167 11.0918ZM31.5001 27.9043C32.6705 29.0761 33.3279 30.6647 33.3279 32.3209C33.3279 33.9772 32.6705 35.5657 31.5001 36.7376L18.2501 50.0001L31.5084 63.2584C32.6803 64.4309 33.3385 66.0209 33.3381 67.6787C33.3377 69.3364 32.6788 70.9261 31.5063 72.098C30.3338 73.2699 28.7438 73.9281 27.0861 73.9277C25.4283 73.9273 23.8387 73.2684 22.6667 72.0959L4.98756 54.4168C3.81714 53.2449 3.15973 51.6564 3.15973 50.0001C3.15973 48.3438 3.81714 46.7553 4.98756 45.5834L22.6626 27.9043C23.243 27.3235 23.9322 26.8627 24.6907 26.5484C25.4492 26.2341 26.2623 26.0723 27.0834 26.0723C27.9045 26.0723 28.7175 26.2341 29.4761 26.5484C30.2346 26.8627 30.9196 27.3235 31.5001 27.9043ZM68.5001 36.7376C67.886 36.1654 67.3935 35.4754 67.0519 34.7087C66.7103 33.9421 66.5266 33.1145 66.5118 32.2753C66.497 31.4361 66.6514 30.6025 66.9657 29.8243C67.28 29.046 67.7479 28.3391 68.3414 27.7456C68.9349 27.1521 69.6418 26.6842 70.4201 26.3699C71.1983 26.0556 72.0319 25.9012 72.8711 25.916C73.7103 25.9308 74.5379 26.1145 75.3045 26.4561C76.0712 26.7977 76.7612 27.2902 77.3334 27.9043L95.0126 45.5793C96.1843 46.7513 96.8425 48.3407 96.8425 49.998C96.8425 51.6553 96.1843 53.2447 95.0126 54.4168L77.3376 72.0959C76.7573 72.6765 76.0683 73.1371 75.3101 73.4514C74.5518 73.7657 73.739 73.9275 72.9182 73.9277C72.0974 73.9279 71.2845 73.7664 70.5261 73.4525C69.7677 73.1385 69.0785 72.6783 68.498 72.098C67.9174 71.5177 67.4569 70.8288 67.1426 70.0705C66.8283 69.3122 66.6664 68.4995 66.6662 67.6787C66.666 66.8578 66.8275 66.045 67.1414 65.2866C67.4554 64.5281 67.9156 63.839 68.4959 63.2584L81.7542 50.0001L68.5001 36.7376Z" 
fill="current"/>
</svg>
