<svg width="100" height="100" viewBox="0 0 100 100" fill="none" xmlns="http://www.w3.org/2000/svg">
<path d="M16.6667 79.1667V41.6667C16.6667 40.3472 16.9625 39.0972 17.5542 37.9167C18.1459 36.7361 18.9611 35.7639 20 35L45 16.25C46.4584 15.1389 48.125 14.5833 50 14.5833C51.875 14.5833 53.5417 15.1389 55 16.25L80 35C81.0417 35.7639 81.8584 36.7361 82.45 37.9167C83.0417 39.0972 83.3361 40.3472 83.3334 41.6667V79.1667C83.3334 81.4583 82.5167 83.4208 80.8834 85.0542C79.25 86.6875 77.2889 87.5028 75 87.5H62.5C61.3195 87.5 60.3306 87.1 59.5334 86.3C58.7361 85.5 58.3361 84.5111 58.3334 83.3333V62.5C58.3334 61.3195 57.9334 60.3306 57.1334 59.5333C56.3334 58.7361 55.3445 58.3361 54.1667 58.3333H45.8334C44.6528 58.3333 43.6639 58.7333 42.8667 59.5333C42.0695 60.3333 41.6695 61.3222 41.6667 62.5V83.3333C41.6667 84.5139 41.2667 85.5042 40.4667 86.3042C39.6667 87.1042 38.6778 87.5028 37.5 87.5H25C22.7084 87.5 20.7472 86.6847 19.1167 85.0542C17.4861 83.4236 16.6695 81.4611 16.6667 79.1667Z" fill="black"/>
</svg>