<svg width="131" height="131" viewBox="0 0 131 131" fill="none" xmlns="http://www.w3.org/2000/svg">
<path d="M118.957 8.39446C117.218 12.6752 114.81 16.8222 112.001 20.5679C87.1186 -5.25051 46.0499 -5.91939 20.3652 18.9626C-5.31941 43.8446 -6.12205 84.9133 18.76 110.598C19.5626 111.534 20.499 112.337 21.4354 113.14L23.8434 115.28C51.1333 138.289 92.0682 134.811 115.077 107.521C123.906 97.0868 129.257 83.9769 130.194 70.3319C132.067 54.1452 127.117 33.2765 118.957 8.39446ZM30.7996 113.809C28.9268 116.216 25.4487 116.484 23.0407 114.611C20.6328 112.738 20.3652 109.26 22.2381 106.852C24.1109 104.444 27.5891 104.177 29.997 106.05C32.2712 107.922 32.6725 111.401 30.7996 113.809ZM118.556 94.4113C102.636 115.681 68.3902 108.458 46.585 109.528C46.585 109.528 42.7055 109.795 38.8261 110.33C38.8261 110.33 40.2976 109.662 42.1704 108.993C57.5545 103.642 64.7783 102.572 74.1425 97.7556C91.6669 88.7928 109.191 69.128 112.669 48.7943C105.981 68.3253 85.6471 85.1809 67.1862 92.0033C54.4777 96.6854 31.6023 101.234 31.6023 101.234L30.6659 100.699C15.1481 93.0735 14.613 59.3624 42.9731 48.5267C55.4141 43.7109 67.1862 46.3863 80.6974 43.1758C95.0113 39.8314 111.599 29.1295 118.288 15.0832C125.779 37.691 134.876 72.7399 118.556 94.4113Z" fill="#6DB33F"/>
<path d="M115.077 107.521C123.906 97.0868 129.257 83.9769 130.194 70.3319Z" fill="#6DB33F"/>
<path d="M118.556 94.4112C102.636 115.681 68.3902 108.458 46.585 109.528C46.585 109.528 42.7056 109.795 38.8261 110.33C38.8261 110.33 40.2976 109.662 42.1705 108.993C57.5545 103.642 64.7783 102.571 74.1425 97.7556C91.6669 88.7927 109.191 69.1279 112.669 48.7942C105.981 68.3253 85.6471 85.1808 67.1862 92.0033C54.4777 96.6854 31.6023 101.234 31.6023 101.234L30.6659 100.699C15.1481 93.0735 14.613 59.3624 42.9731 48.5267C55.4141 43.7108 67.1862 46.3863 80.6974 43.1757C95.0113 39.8314 111.599 29.1294 118.288 15.0831C125.779 37.691 134.876 72.7398 118.556 94.4112ZM30.7996 113.809C28.9268 116.216 25.4487 116.484 23.0407 114.611C20.6328 112.738 20.3653 109.26 22.2381 106.852C24.1109 104.444 27.5891 104.177 29.997 106.05C32.2712 107.922 32.6725 111.401 30.7996 113.809Z" fill="white"/>
</svg>
